<svg width="18" height="16" viewBox="0 0 18 16" fill="none" xmlns="http://www.w3.org/2000/svg">
<path fill-rule="evenodd" clip-rule="evenodd" d="M17.2844 8.82405C17.6877 8.77278 18 8.42326 18 8.00017C18 7.54181 17.6335 7.16981 17.1818 7.16981L2.79927 7.16981L7.99527 1.91866L8.06877 1.83385C8.31379 1.50912 8.28945 1.04236 7.99745 0.743986C7.67891 0.419596 7.16073 0.418489 6.84109 0.741774L0.241091 7.41228L0.168308 7.4958C0.0575758 7.64188 0 7.82026 0 8.00017C0 8.10756 0.0207273 8.21495 0.0621818 8.31681C0.188727 8.62791 0.486545 8.83052 0.818182 8.83052H17.1818L17.2844 8.82405ZM7.99756 15.256C8.31611 14.9305 8.31611 14.4046 7.99538 14.0813L4.35502 10.4023L4.27097 10.328C3.94949 10.0804 3.49065 10.1062 3.19865 10.4045C3.03938 10.5673 2.95975 10.7787 2.95975 10.9902C2.95975 11.2039 3.03938 11.4165 3.20084 11.5792L6.84011 15.2582L6.92417 15.3323C7.24581 15.5791 7.70556 15.5534 7.99756 15.256Z" fill="black"/>
</svg>
